{"title":"Cadillac Records(2008)Mpeg-4[DaScubaDude]","uid":14487900,"size":1081506187,"categoryP":"video","categoryS":"movies","magnet":"?xt=urn:btih:fa656c4e33057a29037389dad98b6e3f53c2d882&amp;dn=Cadillac+Records%282008%29Mpeg-4%5BDaScubaDude%5D&amp;tr=udp%3A%2F%2Ftracker.leechers-paradise.org%3A6969&amp;tr=udp%3A%2F%2Fzer0day.ch%3A1337&amp;tr=udp%3A%2F%2Fopen.demonii.com%3A1337&amp;tr=udp%3A%2F%2Ftracker.coppersurfer.tk%3A6969&amp;tr=udp%3A%2F%2Fexodus.desync.com%3A6969","seeders":1,"leechers":1,"uploader":"dascuba","files":1,"time":1462071046,"description":"Cadillac Records (2008)\r\nR | 1h 49min | Biography, Drama, Music | 5 December 2008 (USA)\r\nChronicles the rise of Chess Records and its recording artists.\r\nDirector: Darnell Martin\r\nWriter: Darnell Martin\r\nStars: Adrien Brody, Jeffrey Wright, Beyoncé Knowles \r\n\r\n\r\nGeneral\r\nComplete name                            : Cadillac RecordsCadillac Records_Title1.mp4\r\nFormat                                   : MPEG-4\r\nFormat profile                           : Base Media\r\nCodec ID                                 : isom (isom/iso2/avc1/mp41)\r\nFile size                                : 1.01 GiB\r\nDuration                                 : 1h 48mn\r\nOverall bit rate                         : 1 329 Kbps\r\nMovie name                               : Cadillac_Records\r\nGenre                                    : Drama\r\nWriting application                      : Lavf54.6.100\r\n\r\nVideo\r\nID                                       : 1\r\nFormat                                   : AVC\r\nFormat/Info                              : Advanced Video Codec\r\nFormat profile                           :   \r\nFormat settings, CABAC                   : No\r\nFormat settings, ReFrames                : 6 frames\r\nCodec ID                                 : avc1\r\nCodec ID/Info                            : Advanced Video Coding\r\nDuration                                 : 1h 48mn\r\nBit rate                                 : 1 195 Kbps\r\nWidth                                    : 720 pixels\r\nHeight                                   : 404 pixels\r\nDisplay aspect ratio                     : 16:9\r\nFrame rate mode                          : Constant\r\nFrame rate                               : 29.970 (30000/1001) fps\r\nColor space                              : YUV\r\nChroma subsampling                       : 4:2:0\r\nBit depth                                : 8 bits\r\nScan type                                : Progressive\r\nBits/(Pixel*Frame)                       : 0.137\r\nStream size                              : 927 MiB (90%)\r\n\r\nAudio\r\nID                                       : 2\r\nFormat                                   : AAC\r\nFormat/Info                              : Advanced Audio Codec\r\nFormat profile                           : LC\r\nCodec ID                                 : 40\r\nDuration                                 : 1h 48mn\r\nBit rate mode                            : Constant\r\nBit rate                                 : 128 Kbps\r\nChannel(s)                               : 2 channels\r\nChannel positions                        : Front: L R\r\nSampling rate                            : 44.1 KHz\r\nFrame rate                               : 43.066 fps (1024 spf)\r\nCompression mode                         : Lossy\r\nStream size                              : 99.3 MiB (10%)\r\nDefault                                  : Yes\r\nAlternate group                          : 1","torrent":{"xt":"urn:btih:fa656c4e33057a29037389dad98b6e3f53c2d882","amp;dn":"Cadillac+Records%282008%29Mpeg-4%5BDaScubaDude%5D","amp;tr":["udp%3A%2F%2Ftracker.leechers-paradise.org%3A6969","udp%3A%2F%2Fzer0day.ch%3A1337","udp%3A%2F%2Fopen.demonii.com%3A1337","udp%3A%2F%2Ftracker.coppersurfer.tk%3A6969","udp%3A%2F%2Fexodus.desync.com%3A6969"],"infoHash":"fa656c4e33057a29037389dad98b6e3f53c2d882","infoHashBuffer":{"type":"Buffer","data":[250,101,108,78,51,5,122,41,3,115,137,218,217,139,110,63,83,194,216,130]},"announce":[],"urlList":[]}}